<svg xmlns="http://www.w3.org/2000/svg" viewBox="0 0 900 550">
  <defs>
    <linearGradient id="blueGrad2" x1="0%" y1="0%" x2="100%" y2="100%">
      <stop offset="0%" style="stop-color:#3B82F6;stop-opacity:1" />
      <stop offset="100%" style="stop-color:#1D4ED8;stop-opacity:1" />
    </linearGradient>
    <linearGradient id="greenGrad2" x1="0%" y1="0%" x2="100%" y2="100%">
      <stop offset="0%" style="stop-color:#10B981;stop-opacity:1" />
      <stop offset="100%" style="stop-color:#059669;stop-opacity:1" />
    </linearGradient>
    <linearGradient id="purpleGrad" x1="0%" y1="0%" x2="100%" y2="100%">
      <stop offset="0%" style="stop-color:#8B5CF6;stop-opacity:1" />
      <stop offset="100%" style="stop-color:#7C3AED;stop-opacity:1" />
    </linearGradient>
    <linearGradient id="redGrad" x1="0%" y1="0%" x2="100%" y2="100%">
      <stop offset="0%" style="stop-color:#EF4444;stop-opacity:1" />
      <stop offset="100%" style="stop-color:#DC2626;stop-opacity:1" />
    </linearGradient>
    <filter id="shadow2" x="-20%" y="-20%" width="140%" height="140%">
      <feDropShadow dx="2" dy="2" stdDeviation="3" flood-opacity="0.15"/>
    </filter>
  </defs>
  
  <!-- Background -->
  <rect width="900" height="550" fill="#f8fafc"/>
  
  <!-- Title -->
  <text x="450" y="35" text-anchor="middle" font-family="Arial, sans-serif" font-size="24" font-weight="bold" fill="#1e293b">Chunking Strategies Comparison</text>
  
  <!-- Fixed-Size Chunking -->
  <rect x="30" y="70" width="260" height="200" rx="12" fill="white" stroke="#e2e8f0" stroke-width="2" filter="url(#shadow2)"/>
  <rect x="30" y="70" width="260" height="45" rx="12" fill="url(#blueGrad2)"/>
  <text x="160" y="100" text-anchor="middle" font-family="Arial, sans-serif" font-size="16" fill="white" font-weight="bold">Fixed-Size Chunking</text>
  
  <!-- Fixed chunks visualization -->
  <rect x="50" y="130" width="60" height="30" rx="4" fill="#DBEAFE" stroke="#3B82F6" stroke-width="2"/>
  <rect x="115" y="130" width="60" height="30" rx="4" fill="#DBEAFE" stroke="#3B82F6" stroke-width="2"/>
  <rect x="180" y="130" width="60" height="30" rx="4" fill="#DBEAFE" stroke="#3B82F6" stroke-width="2"/>
  <rect x="50" y="165" width="60" height="30" rx="4" fill="#DBEAFE" stroke="#3B82F6" stroke-width="2"/>
  <rect x="115" y="165" width="60" height="30" rx="4" fill="#DBEAFE" stroke="#3B82F6" stroke-width="2"/>
  <text x="160" y="220" text-anchor="middle" font-family="Arial, sans-serif" font-size="11" fill="#64748b">512 tokens each</text>
  
  <text x="50" y="245" font-family="Arial, sans-serif" font-size="11" fill="#16a34a">✓ Simple, predictable</text>
  <text x="50" y="260" font-family="Arial, sans-serif" font-size="11" fill="#dc2626">✗ Splits sentences</text>
  
  <!-- Recursive Chunking -->
  <rect x="320" y="70" width="260" height="200" rx="12" fill="white" stroke="#e2e8f0" stroke-width="2" filter="url(#shadow2)"/>
  <rect x="320" y="70" width="260" height="45" rx="12" fill="url(#greenGrad2)"/>
  <text x="450" y="100" text-anchor="middle" font-family="Arial, sans-serif" font-size="16" fill="white" font-weight="bold">Recursive Chunking</text>
  
  <!-- Recursive chunks visualization -->
  <rect x="340" y="130" width="100" height="25" rx="4" fill="#D1FAE5" stroke="#10B981" stroke-width="2"/>
  <rect x="450" y="130" width="70" height="25" rx="4" fill="#D1FAE5" stroke="#10B981" stroke-width="2"/>
  <rect x="340" y="160" width="80" height="25" rx="4" fill="#D1FAE5" stroke="#10B981" stroke-width="2"/>
  <rect x="430" y="160" width="90" height="25" rx="4" fill="#D1FAE5" stroke="#10B981" stroke-width="2"/>
  <rect x="340" y="190" width="60" height="25" rx="4" fill="#D1FAE5" stroke="#10B981" stroke-width="2"/>
  <text x="450" y="235" text-anchor="middle" font-family="Arial, sans-serif" font-size="11" fill="#64748b">Paragraph → Sentence → Word</text>
  
  <text x="340" y="255" font-family="Arial, sans-serif" font-size="11" fill="#16a34a">✓ Respects boundaries</text>
  <text x="340" y="270" font-family="Arial, sans-serif" font-size="11" fill="#dc2626">✗ Variable sizes</text>
  
  <!-- Semantic Chunking -->
  <rect x="610" y="70" width="260" height="200" rx="12" fill="white" stroke="#e2e8f0" stroke-width="2" filter="url(#shadow2)"/>
  <rect x="610" y="70" width="260" height="45" rx="12" fill="url(#purpleGrad)"/>
  <text x="740" y="100" text-anchor="middle" font-family="Arial, sans-serif" font-size="16" fill="white" font-weight="bold">Semantic Chunking</text>
  
  <!-- Semantic chunks visualization -->
  <rect x="630" y="130" width="90" height="35" rx="4" fill="#EDE9FE" stroke="#8B5CF6" stroke-width="2"/>
  <text x="675" y="152" text-anchor="middle" font-family="Arial, sans-serif" font-size="9" fill="#6D28D9">Topic A</text>
  <rect x="730" y="130" width="70" height="35" rx="4" fill="#FEE2E2" stroke="#EF4444" stroke-width="2"/>
  <text x="765" y="152" text-anchor="middle" font-family="Arial, sans-serif" font-size="9" fill="#DC2626">Topic B</text>
  <rect x="630" y="175" width="110" height="35" rx="4" fill="#DBEAFE" stroke="#3B82F6" stroke-width="2"/>
  <text x="685" y="197" text-anchor="middle" font-family="Arial, sans-serif" font-size="9" fill="#1D4ED8">Topic C</text>
  <text x="740" y="235" text-anchor="middle" font-family="Arial, sans-serif" font-size="11" fill="#64748b">Split at topic changes</text>
  
  <text x="630" y="255" font-family="Arial, sans-serif" font-size="11" fill="#16a34a">✓ Preserves meaning</text>
  <text x="630" y="270" font-family="Arial, sans-serif" font-size="11" fill="#dc2626">✗ Expensive (needs LLM)</text>
  
  <!-- Parent-Child Section -->
  <rect x="30" y="300" width="405" height="220" rx="12" fill="white" stroke="#e2e8f0" stroke-width="2" filter="url(#shadow2)"/>
  <rect x="30" y="300" width="405" height="45" rx="12" fill="url(#redGrad)"/>
  <text x="232" y="330" text-anchor="middle" font-family="Arial, sans-serif" font-size="16" fill="white" font-weight="bold">Parent-Child Chunking</text>
  
  <!-- Parent document -->
  <rect x="50" y="360" width="365" height="50" rx="6" fill="#FEE2E2" stroke="#EF4444" stroke-width="2"/>
  <text x="232" y="390" text-anchor="middle" font-family="Arial, sans-serif" font-size="12" fill="#991B1B" font-weight="bold">Parent: Full Page / Section</text>
  
  <!-- Children -->
  <path d="M232 410 L232 430" stroke="#94a3b8" stroke-width="2"/>
  <path d="M100 430 L365 430" stroke="#94a3b8" stroke-width="2"/>
  <path d="M100 430 L100 445" stroke="#94a3b8" stroke-width="2"/>
  <path d="M232 430 L232 445" stroke="#94a3b8" stroke-width="2"/>
  <path d="M365 430 L365 445" stroke="#94a3b8" stroke-width="2"/>
  
  <rect x="50" y="450" width="100" height="40" rx="4" fill="#DBEAFE" stroke="#3B82F6" stroke-width="2"/>
  <text x="100" y="475" text-anchor="middle" font-family="Arial, sans-serif" font-size="10" fill="#1D4ED8">Child 1</text>
  
  <rect x="182" y="450" width="100" height="40" rx="4" fill="#DBEAFE" stroke="#3B82F6" stroke-width="2"/>
  <text x="232" y="475" text-anchor="middle" font-family="Arial, sans-serif" font-size="10" fill="#1D4ED8">Child 2</text>
  
  <rect x="315" y="450" width="100" height="40" rx="4" fill="#DBEAFE" stroke="#3B82F6" stroke-width="2"/>
  <text x="365" y="475" text-anchor="middle" font-family="Arial, sans-serif" font-size="10" fill="#1D4ED8">Child 3</text>
  
  <text x="232" y="510" text-anchor="middle" font-family="Arial, sans-serif" font-size="11" fill="#64748b">Search children → Retrieve parent for context</text>
  
  <!-- Comparison Table -->
  <rect x="465" y="300" width="405" height="220" rx="12" fill="white" stroke="#e2e8f0" stroke-width="2" filter="url(#shadow2)"/>
  <text x="667" y="330" text-anchor="middle" font-family="Arial, sans-serif" font-size="16" fill="#1e293b" font-weight="bold">Comparison Summary</text>
  
  <!-- Table headers -->
  <rect x="485" y="350" width="100" height="30" fill="#f1f5f9"/>
  <rect x="585" y="350" width="90" height="30" fill="#f1f5f9"/>
  <rect x="675" y="350" width="80" height="30" fill="#f1f5f9"/>
  <rect x="755" y="350" width="95" height="30" fill="#f1f5f9"/>
  
  <text x="535" y="370" text-anchor="middle" font-family="Arial, sans-serif" font-size="11" fill="#475569" font-weight="bold">Strategy</text>
  <text x="630" y="370" text-anchor="middle" font-family="Arial, sans-serif" font-size="11" fill="#475569" font-weight="bold">Speed</text>
  <text x="715" y="370" text-anchor="middle" font-family="Arial, sans-serif" font-size="11" fill="#475569" font-weight="bold">Quality</text>
  <text x="802" y="370" text-anchor="middle" font-family="Arial, sans-serif" font-size="11" fill="#475569" font-weight="bold">Use Case</text>
  
  <!-- Row 1 -->
  <text x="535" y="400" text-anchor="middle" font-family="Arial, sans-serif" font-size="10" fill="#1e293b">Fixed-Size</text>
  <text x="630" y="400" text-anchor="middle" font-family="Arial, sans-serif" font-size="10" fill="#16a34a">★★★★★</text>
  <text x="715" y="400" text-anchor="middle" font-family="Arial, sans-serif" font-size="10" fill="#f59e0b">★★★☆☆</text>
  <text x="802" y="400" text-anchor="middle" font-family="Arial, sans-serif" font-size="9" fill="#64748b">Prototyping</text>
  
  <!-- Row 2 -->
  <text x="535" y="425" text-anchor="middle" font-family="Arial, sans-serif" font-size="10" fill="#1e293b">Recursive</text>
  <text x="630" y="425" text-anchor="middle" font-family="Arial, sans-serif" font-size="10" fill="#16a34a">★★★★☆</text>
  <text x="715" y="425" text-anchor="middle" font-family="Arial, sans-serif" font-size="10" fill="#16a34a">★★★★☆</text>
  <text x="802" y="425" text-anchor="middle" font-family="Arial, sans-serif" font-size="9" fill="#64748b">Production</text>
  
  <!-- Row 3 -->
  <text x="535" y="450" text-anchor="middle" font-family="Arial, sans-serif" font-size="10" fill="#1e293b">Semantic</text>
  <text x="630" y="450" text-anchor="middle" font-family="Arial, sans-serif" font-size="10" fill="#dc2626">★★☆☆☆</text>
  <text x="715" y="450" text-anchor="middle" font-family="Arial, sans-serif" font-size="10" fill="#16a34a">★★★★★</text>
  <text x="802" y="450" text-anchor="middle" font-family="Arial, sans-serif" font-size="9" fill="#64748b">High-value</text>
  
  <!-- Row 4 -->
  <text x="535" y="475" text-anchor="middle" font-family="Arial, sans-serif" font-size="10" fill="#1e293b">Parent-Child</text>
  <text x="630" y="475" text-anchor="middle" font-family="Arial, sans-serif" font-size="10" fill="#f59e0b">★★★☆☆</text>
  <text x="715" y="475" text-anchor="middle" font-family="Arial, sans-serif" font-size="10" fill="#16a34a">★★★★★</text>
  <text x="802" y="475" text-anchor="middle" font-family="Arial, sans-serif" font-size="9" fill="#64748b">Long docs</text>
  
  <!-- Key Insight -->
  <rect x="485" y="490" width="365" height="25" rx="4" fill="#fef3c7"/>
  <text x="667" y="507" text-anchor="middle" font-family="Arial, sans-serif" font-size="10" fill="#92400e" font-weight="bold">💡 80% of RAG failures trace back to chunking decisions</text>
</svg>
