<svg xmlns="http://www.w3.org/2000/svg" viewBox="0 0 1200 400">
  <defs>
    <linearGradient id="bgGrad" x1="0%" y1="0%" x2="100%" y2="100%">
      <stop offset="0%" style="stop-color:#0f172a;stop-opacity:1" />
      <stop offset="50%" style="stop-color:#1e1b4b;stop-opacity:1" />
      <stop offset="100%" style="stop-color:#0f172a;stop-opacity:1" />
    </linearGradient>
    <linearGradient id="accentGrad1" x1="0%" y1="0%" x2="100%" y2="100%">
      <stop offset="0%" style="stop-color:#38bdf8;stop-opacity:1" />
      <stop offset="100%" style="stop-color:#818cf8;stop-opacity:1" />
    </linearGradient>
    <linearGradient id="accentGrad2" x1="0%" y1="0%" x2="100%" y2="100%">
      <stop offset="0%" style="stop-color:#c084fc;stop-opacity:1" />
      <stop offset="100%" style="stop-color:#f43f5e;stop-opacity:1" />
    </linearGradient>
    <linearGradient id="accentGrad3" x1="0%" y1="0%" x2="100%" y2="100%">
      <stop offset="0%" style="stop-color:#34d399;stop-opacity:1" />
      <stop offset="100%" style="stop-color:#38bdf8;stop-opacity:1" />
    </linearGradient>
    <linearGradient id="lineGrad" x1="0%" y1="0%" x2="100%" y2="0%">
      <stop offset="0%" style="stop-color:#38bdf8;stop-opacity:0" />
      <stop offset="50%" style="stop-color:#818cf8;stop-opacity:1" />
      <stop offset="100%" style="stop-color:#c084fc;stop-opacity:0" />
    </linearGradient>
  </defs>

  <!-- Background -->
  <rect width="1200" height="400" fill="url(#bgGrad)"/>

  <!-- Subtle grid pattern -->
  <g opacity="0.03">
    <line x1="0" y1="0" x2="0" y2="400" stroke="white" stroke-width="1"/>
    <line x1="40" y1="0" x2="40" y2="400" stroke="white" stroke-width="1"/>
    <line x1="80" y1="0" x2="80" y2="400" stroke="white" stroke-width="1"/>
    <line x1="120" y1="0" x2="120" y2="400" stroke="white" stroke-width="1"/>
    <line x1="160" y1="0" x2="160" y2="400" stroke="white" stroke-width="1"/>
    <line x1="200" y1="0" x2="200" y2="400" stroke="white" stroke-width="1"/>
    <line x1="240" y1="0" x2="240" y2="400" stroke="white" stroke-width="1"/>
    <line x1="280" y1="0" x2="280" y2="400" stroke="white" stroke-width="1"/>
    <line x1="320" y1="0" x2="320" y2="400" stroke="white" stroke-width="1"/>
    <line x1="360" y1="0" x2="360" y2="400" stroke="white" stroke-width="1"/>
    <line x1="400" y1="0" x2="400" y2="400" stroke="white" stroke-width="1"/>
    <line x1="440" y1="0" x2="440" y2="400" stroke="white" stroke-width="1"/>
    <line x1="480" y1="0" x2="480" y2="400" stroke="white" stroke-width="1"/>
    <line x1="520" y1="0" x2="520" y2="400" stroke="white" stroke-width="1"/>
    <line x1="560" y1="0" x2="560" y2="400" stroke="white" stroke-width="1"/>
    <line x1="600" y1="0" x2="600" y2="400" stroke="white" stroke-width="1"/>
    <line x1="640" y1="0" x2="640" y2="400" stroke="white" stroke-width="1"/>
    <line x1="680" y1="0" x2="680" y2="400" stroke="white" stroke-width="1"/>
    <line x1="720" y1="0" x2="720" y2="400" stroke="white" stroke-width="1"/>
    <line x1="760" y1="0" x2="760" y2="400" stroke="white" stroke-width="1"/>
    <line x1="800" y1="0" x2="800" y2="400" stroke="white" stroke-width="1"/>
    <line x1="840" y1="0" x2="840" y2="400" stroke="white" stroke-width="1"/>
    <line x1="880" y1="0" x2="880" y2="400" stroke="white" stroke-width="1"/>
    <line x1="920" y1="0" x2="920" y2="400" stroke="white" stroke-width="1"/>
    <line x1="960" y1="0" x2="960" y2="400" stroke="white" stroke-width="1"/>
    <line x1="1000" y1="0" x2="1000" y2="400" stroke="white" stroke-width="1"/>
    <line x1="1040" y1="0" x2="1040" y2="400" stroke="white" stroke-width="1"/>
    <line x1="1080" y1="0" x2="1080" y2="400" stroke="white" stroke-width="1"/>
    <line x1="1120" y1="0" x2="1120" y2="400" stroke="white" stroke-width="1"/>
    <line x1="1160" y1="0" x2="1160" y2="400" stroke="white" stroke-width="1"/>
    <line x1="1200" y1="0" x2="1200" y2="400" stroke="white" stroke-width="1"/>
    <line x1="0" y1="40" x2="1200" y2="40" stroke="white" stroke-width="1"/>
    <line x1="0" y1="80" x2="1200" y2="80" stroke="white" stroke-width="1"/>
    <line x1="0" y1="120" x2="1200" y2="120" stroke="white" stroke-width="1"/>
    <line x1="0" y1="160" x2="1200" y2="160" stroke="white" stroke-width="1"/>
    <line x1="0" y1="200" x2="1200" y2="200" stroke="white" stroke-width="1"/>
    <line x1="0" y1="240" x2="1200" y2="240" stroke="white" stroke-width="1"/>
    <line x1="0" y1="280" x2="1200" y2="280" stroke="white" stroke-width="1"/>
    <line x1="0" y1="320" x2="1200" y2="320" stroke="white" stroke-width="1"/>
    <line x1="0" y1="360" x2="1200" y2="360" stroke="white" stroke-width="1"/>
  </g>

  <!-- Decorative neural network nodes - left cluster -->
  <g opacity="0.12">
    <circle cx="80" cy="100" r="4" fill="#38bdf8"/>
    <circle cx="140" cy="70" r="3" fill="#818cf8"/>
    <circle cx="60" cy="180" r="5" fill="#c084fc"/>
    <circle cx="160" cy="150" r="3" fill="#34d399"/>
    <circle cx="100" cy="250" r="4" fill="#38bdf8"/>
    <circle cx="180" cy="220" r="3" fill="#fbbf24"/>
    <circle cx="50" cy="310" r="4" fill="#818cf8"/>
    <circle cx="130" cy="340" r="3" fill="#fb7185"/>
    <circle cx="200" cy="290" r="5" fill="#34d399"/>
    <line x1="80" y1="100" x2="140" y2="70" stroke="#38bdf8" stroke-width="0.8"/>
    <line x1="80" y1="100" x2="60" y2="180" stroke="#818cf8" stroke-width="0.8"/>
    <line x1="140" y1="70" x2="160" y2="150" stroke="#c084fc" stroke-width="0.8"/>
    <line x1="60" y1="180" x2="100" y2="250" stroke="#34d399" stroke-width="0.8"/>
    <line x1="160" y1="150" x2="180" y2="220" stroke="#38bdf8" stroke-width="0.8"/>
    <line x1="100" y1="250" x2="50" y2="310" stroke="#818cf8" stroke-width="0.8"/>
    <line x1="180" y1="220" x2="200" y2="290" stroke="#fbbf24" stroke-width="0.8"/>
    <line x1="50" y1="310" x2="130" y2="340" stroke="#fb7185" stroke-width="0.8"/>
    <line x1="200" y1="290" x2="130" y2="340" stroke="#c084fc" stroke-width="0.8"/>
  </g>

  <!-- Decorative neural network nodes - right cluster -->
  <g opacity="0.12">
    <circle cx="1020" cy="80" r="4" fill="#fb7185"/>
    <circle cx="1080" cy="120" r="3" fill="#38bdf8"/>
    <circle cx="1140" cy="70" r="5" fill="#fbbf24"/>
    <circle cx="1050" cy="190" r="3" fill="#818cf8"/>
    <circle cx="1120" cy="170" r="4" fill="#34d399"/>
    <circle cx="1160" cy="250" r="3" fill="#c084fc"/>
    <circle cx="1040" cy="300" r="4" fill="#38bdf8"/>
    <circle cx="1100" cy="330" r="5" fill="#fb7185"/>
    <circle cx="1170" cy="340" r="3" fill="#fbbf24"/>
    <line x1="1020" y1="80" x2="1080" y2="120" stroke="#fb7185" stroke-width="0.8"/>
    <line x1="1080" y1="120" x2="1140" y2="70" stroke="#38bdf8" stroke-width="0.8"/>
    <line x1="1050" y1="190" x2="1120" y2="170" stroke="#818cf8" stroke-width="0.8"/>
    <line x1="1080" y1="120" x2="1050" y2="190" stroke="#34d399" stroke-width="0.8"/>
    <line x1="1120" y1="170" x2="1160" y2="250" stroke="#c084fc" stroke-width="0.8"/>
    <line x1="1160" y1="250" x2="1100" y2="330" stroke="#38bdf8" stroke-width="0.8"/>
    <line x1="1040" y1="300" x2="1100" y2="330" stroke="#fb7185" stroke-width="0.8"/>
    <line x1="1100" y1="330" x2="1170" y2="340" stroke="#fbbf24" stroke-width="0.8"/>
  </g>

  <!-- Floating decorative orbs -->
  <circle cx="250" cy="80" r="60" fill="url(#accentGrad1)" opacity="0.06"/>
  <circle cx="950" cy="320" r="80" fill="url(#accentGrad2)" opacity="0.05"/>
  <circle cx="150" cy="350" r="40" fill="url(#accentGrad3)" opacity="0.04"/>
  <circle cx="1050" cy="60" r="50" fill="url(#accentGrad1)" opacity="0.04"/>

  <!-- Main Content -->

  <!-- Top accent line -->
  <rect x="350" y="80" width="500" height="2" fill="url(#lineGrad)" rx="1"/>

  <!-- Brain/AI Icon -->
  <g transform="translate(555, 105)">
    <circle cx="45" cy="45" r="40" fill="none" stroke="url(#accentGrad1)" stroke-width="2" opacity="0.6"/>
    <circle cx="45" cy="45" r="30" fill="none" stroke="url(#accentGrad2)" stroke-width="1.5" opacity="0.4"/>
    <!-- Neural connections inside circle -->
    <circle cx="30" cy="35" r="3" fill="#38bdf8" opacity="0.8"/>
    <circle cx="60" cy="35" r="3" fill="#818cf8" opacity="0.8"/>
    <circle cx="45" cy="25" r="3" fill="#c084fc" opacity="0.8"/>
    <circle cx="35" cy="55" r="3" fill="#34d399" opacity="0.8"/>
    <circle cx="55" cy="55" r="3" fill="#fbbf24" opacity="0.8"/>
    <circle cx="45" cy="45" r="3" fill="#f1f5f9" opacity="0.9"/>
    <line x1="30" y1="35" x2="45" y2="45" stroke="#38bdf8" stroke-width="1" opacity="0.5"/>
    <line x1="60" y1="35" x2="45" y2="45" stroke="#818cf8" stroke-width="1" opacity="0.5"/>
    <line x1="45" y1="25" x2="45" y2="45" stroke="#c084fc" stroke-width="1" opacity="0.5"/>
    <line x1="35" y1="55" x2="45" y2="45" stroke="#34d399" stroke-width="1" opacity="0.5"/>
    <line x1="55" y1="55" x2="45" y2="45" stroke="#fbbf24" stroke-width="1" opacity="0.5"/>
    <line x1="30" y1="35" x2="45" y2="25" stroke="#38bdf8" stroke-width="0.8" opacity="0.3"/>
    <line x1="60" y1="35" x2="45" y2="25" stroke="#818cf8" stroke-width="0.8" opacity="0.3"/>
    <line x1="35" y1="55" x2="55" y2="55" stroke="#34d399" stroke-width="0.8" opacity="0.3"/>
  </g>

  <!-- Title -->
  <text x="600" y="215" text-anchor="middle" font-family="Arial, sans-serif" font-size="42" font-weight="bold" fill="#f1f5f9" letter-spacing="1">Production AI</text>
  <text x="600" y="265" text-anchor="middle" font-family="Arial, sans-serif" font-size="42" font-weight="bold" fill="url(#accentGrad1)" letter-spacing="1">Interview Questions</text>

  <!-- Subtitle -->
  <text x="600" y="305" text-anchor="middle" font-family="Arial, sans-serif" font-size="18" fill="#94a3b8" letter-spacing="0.5">The Ultimate Guide for AI/ML Engineers — From Fresh Graduate to Staff Level</text>

  <!-- Bottom accent line -->
  <rect x="350" y="330" width="500" height="2" fill="url(#lineGrad)" rx="1"/>

  <!-- Stats pills -->
  <g transform="translate(260, 350)">
    <!-- 180+ Questions -->
    <rect x="0" y="0" width="130" height="32" rx="16" fill="#1e293b" stroke="#334155" stroke-width="1"/>
    <text x="65" y="21" text-anchor="middle" font-family="Arial, sans-serif" font-size="12" fill="#38bdf8" font-weight="bold">180+ Questions</text>

    <!-- 16 Sections -->
    <rect x="150" y="0" width="120" height="32" rx="16" fill="#1e293b" stroke="#334155" stroke-width="1"/>
    <text x="210" y="21" text-anchor="middle" font-family="Arial, sans-serif" font-size="12" fill="#818cf8" font-weight="bold">16 Sections</text>

    <!-- 4 Levels -->
    <rect x="290" y="0" width="100" height="32" rx="16" fill="#1e293b" stroke="#334155" stroke-width="1"/>
    <text x="340" y="21" text-anchor="middle" font-family="Arial, sans-serif" font-size="12" fill="#34d399" font-weight="bold">4 Levels</text>

    <!-- 15+ Case Studies -->
    <rect x="410" y="0" width="150" height="32" rx="16" fill="#1e293b" stroke="#334155" stroke-width="1"/>
    <text x="485" y="21" text-anchor="middle" font-family="Arial, sans-serif" font-size="12" fill="#fbbf24" font-weight="bold">15+ Case Studies</text>
  </g>
</svg>