<svg xmlns="http://www.w3.org/2000/svg" viewBox="0 0 1200 400" width="1200" height="400">
  <defs>
    <!-- Background radial gradient -->
    <radialGradient id="bgGrad" cx="50%" cy="50%" r="70%">
      <stop offset="0%" stop-color="#0c1222"/>
      <stop offset="100%" stop-color="#030712"/>
    </radialGradient>
    <!-- Title text gradient -->
    <linearGradient id="titleGrad" x1="0%" y1="0%" x2="100%" y2="0%">
      <stop offset="0%" stop-color="#38bdf8"/>
      <stop offset="100%" stop-color="#818cf8"/>
    </linearGradient>
    <!-- Accent line gradient -->
    <linearGradient id="accentLine" x1="0%" y1="0%" x2="100%" y2="0%">
      <stop offset="0%" stop-color="#38bdf8" stop-opacity="0"/>
      <stop offset="25%" stop-color="#38bdf8" stop-opacity="1"/>
      <stop offset="75%" stop-color="#818cf8" stop-opacity="1"/>
      <stop offset="100%" stop-color="#818cf8" stop-opacity="0"/>
    </linearGradient>
    <!-- Vignette gradient -->
    <radialGradient id="vignette" cx="50%" cy="50%" r="60%">
      <stop offset="0%" stop-color="#000000" stop-opacity="0"/>
      <stop offset="100%" stop-color="#000000" stop-opacity="0.55"/>
    </radialGradient>
    <!-- Node glow gradients -->
    <radialGradient id="glowSky" cx="50%" cy="50%" r="50%">
      <stop offset="0%" stop-color="#38bdf8" stop-opacity="0.35"/>
      <stop offset="100%" stop-color="#38bdf8" stop-opacity="0"/>
    </radialGradient>
    <radialGradient id="glowIndigo" cx="50%" cy="50%" r="50%">
      <stop offset="0%" stop-color="#818cf8" stop-opacity="0.35"/>
      <stop offset="100%" stop-color="#818cf8" stop-opacity="0"/>
    </radialGradient>
    <radialGradient id="glowEmerald" cx="50%" cy="50%" r="50%">
      <stop offset="0%" stop-color="#34d399" stop-opacity="0.35"/>
      <stop offset="100%" stop-color="#34d399" stop-opacity="0"/>
    </radialGradient>
    <radialGradient id="glowPurple" cx="50%" cy="50%" r="50%">
      <stop offset="0%" stop-color="#c084fc" stop-opacity="0.35"/>
      <stop offset="100%" stop-color="#c084fc" stop-opacity="0"/>
    </radialGradient>
    <!-- Neural connection gradients -->
    <linearGradient id="connSkyIndigo" x1="0%" y1="0%" x2="100%" y2="0%">
      <stop offset="0%" stop-color="#38bdf8"/>
      <stop offset="100%" stop-color="#818cf8"/>
    </linearGradient>
    <linearGradient id="connEmeraldPurple" x1="0%" y1="0%" x2="100%" y2="0%">
      <stop offset="0%" stop-color="#34d399"/>
      <stop offset="100%" stop-color="#c084fc"/>
    </linearGradient>
    <linearGradient id="connSkyEmerald" x1="0%" y1="0%" x2="100%" y2="100%">
      <stop offset="0%" stop-color="#38bdf8"/>
      <stop offset="100%" stop-color="#34d399"/>
    </linearGradient>
    <linearGradient id="connIndigoPurple" x1="0%" y1="0%" x2="100%" y2="100%">
      <stop offset="0%" stop-color="#818cf8"/>
      <stop offset="100%" stop-color="#c084fc"/>
    </linearGradient>
    <!-- Pill glow gradients -->
    <linearGradient id="pillGlowSky" x1="0%" y1="0%" x2="0%" y2="100%">
      <stop offset="0%" stop-color="#38bdf8" stop-opacity="0.2"/>
      <stop offset="100%" stop-color="#38bdf8" stop-opacity="0"/>
    </linearGradient>
    <linearGradient id="pillGlowIndigo" x1="0%" y1="0%" x2="0%" y2="100%">
      <stop offset="0%" stop-color="#818cf8" stop-opacity="0.2"/>
      <stop offset="100%" stop-color="#818cf8" stop-opacity="0"/>
    </linearGradient>
    <linearGradient id="pillGlowEmerald" x1="0%" y1="0%" x2="0%" y2="100%">
      <stop offset="0%" stop-color="#34d399" stop-opacity="0.2"/>
      <stop offset="100%" stop-color="#34d399" stop-opacity="0"/>
    </linearGradient>
    <linearGradient id="pillGlowAmber" x1="0%" y1="0%" x2="0%" y2="100%">
      <stop offset="0%" stop-color="#fbbf24" stop-opacity="0.2"/>
      <stop offset="100%" stop-color="#fbbf24" stop-opacity="0"/>
    </linearGradient>
  </defs>

  <!-- ==================== BACKGROUND ==================== -->
  <rect width="1200" height="400" fill="url(#bgGrad)"/>

  <!-- ==================== CIRCUIT BOARD PATTERN ==================== -->
  <!-- Horizontal lines -->
  <line x1="0" y1="50" x2="1200" y2="50" stroke="#1e293b" stroke-opacity="0.2" stroke-width="0.5"/>
  <line x1="0" y1="100" x2="1200" y2="100" stroke="#1e293b" stroke-opacity="0.15" stroke-width="0.5"/>
  <line x1="0" y1="150" x2="1200" y2="150" stroke="#1e293b" stroke-opacity="0.2" stroke-width="0.5"/>
  <line x1="0" y1="200" x2="1200" y2="200" stroke="#1e293b" stroke-opacity="0.12" stroke-width="0.5"/>
  <line x1="0" y1="250" x2="1200" y2="250" stroke="#1e293b" stroke-opacity="0.2" stroke-width="0.5"/>
  <line x1="0" y1="300" x2="1200" y2="300" stroke="#1e293b" stroke-opacity="0.15" stroke-width="0.5"/>
  <line x1="0" y1="350" x2="1200" y2="350" stroke="#1e293b" stroke-opacity="0.2" stroke-width="0.5"/>
  <!-- Vertical lines -->
  <line x1="100" y1="0" x2="100" y2="400" stroke="#1e293b" stroke-opacity="0.15" stroke-width="0.5"/>
  <line x1="200" y1="0" x2="200" y2="400" stroke="#1e293b" stroke-opacity="0.2" stroke-width="0.5"/>
  <line x1="300" y1="0" x2="300" y2="400" stroke="#1e293b" stroke-opacity="0.12" stroke-width="0.5"/>
  <line x1="400" y1="0" x2="400" y2="400" stroke="#1e293b" stroke-opacity="0.18" stroke-width="0.5"/>
  <line x1="500" y1="0" x2="500" y2="400" stroke="#1e293b" stroke-opacity="0.15" stroke-width="0.5"/>
  <line x1="600" y1="0" x2="600" y2="400" stroke="#1e293b" stroke-opacity="0.2" stroke-width="0.5"/>
  <line x1="700" y1="0" x2="700" y2="400" stroke="#1e293b" stroke-opacity="0.15" stroke-width="0.5"/>
  <line x1="800" y1="0" x2="800" y2="400" stroke="#1e293b" stroke-opacity="0.18" stroke-width="0.5"/>
  <line x1="900" y1="0" x2="900" y2="400" stroke="#1e293b" stroke-opacity="0.2" stroke-width="0.5"/>
  <line x1="1000" y1="0" x2="1000" y2="400" stroke="#1e293b" stroke-opacity="0.12" stroke-width="0.5"/>
  <line x1="1100" y1="0" x2="1100" y2="400" stroke="#1e293b" stroke-opacity="0.15" stroke-width="0.5"/>
  <!-- Diagonal circuit traces -->
  <line x1="100" y1="50" x2="200" y2="100" stroke="#1e293b" stroke-opacity="0.15" stroke-width="0.5"/>
  <line x1="200" y1="100" x2="200" y2="150" stroke="#1e293b" stroke-opacity="0.15" stroke-width="0.5"/>
  <line x1="300" y1="150" x2="400" y2="100" stroke="#1e293b" stroke-opacity="0.12" stroke-width="0.5"/>
  <line x1="800" y1="250" x2="900" y2="300" stroke="#1e293b" stroke-opacity="0.15" stroke-width="0.5"/>
  <line x1="900" y1="300" x2="1000" y2="250" stroke="#1e293b" stroke-opacity="0.12" stroke-width="0.5"/>
  <line x1="1000" y1="100" x2="1100" y2="150" stroke="#1e293b" stroke-opacity="0.15" stroke-width="0.5"/>
  <!-- Circuit junction dots -->
  <circle cx="200" cy="100" r="2" fill="#1e293b" opacity="0.25"/>
  <circle cx="300" cy="150" r="2" fill="#1e293b" opacity="0.2"/>
  <circle cx="900" cy="300" r="2" fill="#1e293b" opacity="0.25"/>
  <circle cx="1000" cy="250" r="2" fill="#1e293b" opacity="0.2"/>
  <circle cx="500" cy="50" r="2" fill="#1e293b" opacity="0.22"/>
  <circle cx="700" cy="350" r="2" fill="#1e293b" opacity="0.22"/>

  <!-- ==================== STAR FIELD ==================== -->
  <!-- ~35 stars scattered across the canvas -->
  <circle cx="45" cy="28" r="1" fill="#ffffff" opacity="0.2"/>
  <circle cx="112" cy="72" r="1.5" fill="#c4d5f2" opacity="0.15"/>
  <circle cx="178" cy="15" r="1" fill="#ffffff" opacity="0.25"/>
  <circle cx="234" cy="385" r="1" fill="#c4d5f2" opacity="0.12"/>
  <circle cx="89" cy="310" r="1.5" fill="#ffffff" opacity="0.18"/>
  <circle cx="320" cy="42" r="1" fill="#c4d5f2" opacity="0.22"/>
  <circle cx="415" cy="18" r="1.5" fill="#ffffff" opacity="0.15"/>
  <circle cx="490" cy="68" r="1" fill="#c4d5f2" opacity="0.28"/>
  <circle cx="555" cy="30" r="1.5" fill="#ffffff" opacity="0.12"/>
  <circle cx="640" cy="55" r="1" fill="#c4d5f2" opacity="0.2"/>
  <circle cx="720" cy="22" r="1.5" fill="#ffffff" opacity="0.18"/>
  <circle cx="810" cy="45" r="1" fill="#c4d5f2" opacity="0.25"/>
  <circle cx="880" cy="12" r="1" fill="#ffffff" opacity="0.15"/>
  <circle cx="960" cy="65" r="1.5" fill="#c4d5f2" opacity="0.2"/>
  <circle cx="1040" cy="30" r="1" fill="#ffffff" opacity="0.28"/>
  <circle cx="1120" cy="58" r="1.5" fill="#c4d5f2" opacity="0.15"/>
  <circle cx="1170" cy="18" r="1" fill="#ffffff" opacity="0.22"/>
  <circle cx="55" cy="180" r="1" fill="#c4d5f2" opacity="0.18"/>
  <circle cx="155" cy="220" r="1.5" fill="#ffffff" opacity="0.12"/>
  <circle cx="1150" cy="190" r="1" fill="#c4d5f2" opacity="0.25"/>
  <circle cx="1080" cy="280" r="1.5" fill="#ffffff" opacity="0.15"/>
  <circle cx="35" cy="365" r="1" fill="#ffffff" opacity="0.22"/>
  <circle cx="130" cy="390" r="1.5" fill="#c4d5f2" opacity="0.1"/>
  <circle cx="350" cy="380" r="1" fill="#ffffff" opacity="0.18"/>
  <circle cx="480" cy="370" r="1.5" fill="#c4d5f2" opacity="0.15"/>
  <circle cx="650" cy="385" r="1" fill="#ffffff" opacity="0.2"/>
  <circle cx="780" cy="375" r="1.5" fill="#c4d5f2" opacity="0.12"/>
  <circle cx="920" cy="390" r="1" fill="#ffffff" opacity="0.25"/>
  <circle cx="1060" cy="370" r="1.5" fill="#c4d5f2" opacity="0.18"/>
  <circle cx="1175" cy="385" r="1" fill="#ffffff" opacity="0.15"/>
  <circle cx="1160" cy="330" r="1" fill="#c4d5f2" opacity="0.2"/>
  <circle cx="28" cy="130" r="1.5" fill="#ffffff" opacity="0.15"/>
  <circle cx="1185" cy="140" r="1" fill="#c4d5f2" opacity="0.22"/>
  <circle cx="600" cy="12" r="1" fill="#ffffff" opacity="0.3"/>
  <circle cx="750" cy="390" r="1.5" fill="#c4d5f2" opacity="0.14"/>

  <!-- ==================== LEFT NEURAL NETWORK ==================== -->
  <!-- Connection lines (drawn first, behind nodes) -->
  <line x1="65" y1="80" x2="140" y2="145" stroke="url(#connSkyIndigo)" stroke-opacity="0.3" stroke-width="1.2"/>
  <line x1="65" y1="80" x2="55" y2="195" stroke="url(#connSkyEmerald)" stroke-opacity="0.25" stroke-width="1"/>
  <line x1="140" y1="145" x2="55" y2="195" stroke="url(#connIndigoPurple)" stroke-opacity="0.3" stroke-width="1.2"/>
  <line x1="140" y1="145" x2="180" y2="260" stroke="url(#connEmeraldPurple)" stroke-opacity="0.25" stroke-width="1"/>
  <line x1="55" y1="195" x2="180" y2="260" stroke="url(#connSkyIndigo)" stroke-opacity="0.3" stroke-width="1"/>
  <line x1="55" y1="195" x2="95" y2="330" stroke="url(#connSkyEmerald)" stroke-opacity="0.25" stroke-width="1.2"/>
  <line x1="180" y1="260" x2="95" y2="330" stroke="url(#connIndigoPurple)" stroke-opacity="0.3" stroke-width="1"/>
  <line x1="65" y1="80" x2="180" y2="260" stroke="url(#connEmeraldPurple)" stroke-opacity="0.15" stroke-width="0.8"/>
  <line x1="140" y1="145" x2="95" y2="330" stroke="url(#connSkyIndigo)" stroke-opacity="0.15" stroke-width="0.8"/>

  <!-- Left Node 1: Sky - top left -->
  <circle cx="65" cy="80" r="20" fill="#38bdf8" opacity="0.06"/>
  <circle cx="65" cy="80" r="14" fill="#38bdf8" opacity="0.1"/>
  <circle cx="65" cy="80" r="8" fill="#38bdf8" opacity="0.15"/>
  <circle cx="65" cy="80" r="4.5" fill="#38bdf8" opacity="0.7"/>
  <circle cx="65" cy="80" r="2.5" fill="#ffffff" opacity="0.9"/>

  <!-- Left Node 2: Indigo -->
  <circle cx="140" cy="145" r="22" fill="#818cf8" opacity="0.06"/>
  <circle cx="140" cy="145" r="15" fill="#818cf8" opacity="0.1"/>
  <circle cx="140" cy="145" r="9" fill="#818cf8" opacity="0.15"/>
  <circle cx="140" cy="145" r="5" fill="#818cf8" opacity="0.7"/>
  <circle cx="140" cy="145" r="2.8" fill="#ffffff" opacity="0.9"/>

  <!-- Left Node 3: Emerald -->
  <circle cx="55" cy="195" r="18" fill="#34d399" opacity="0.06"/>
  <circle cx="55" cy="195" r="12" fill="#34d399" opacity="0.1"/>
  <circle cx="55" cy="195" r="7" fill="#34d399" opacity="0.15"/>
  <circle cx="55" cy="195" r="4" fill="#34d399" opacity="0.7"/>
  <circle cx="55" cy="195" r="2.2" fill="#ffffff" opacity="0.9"/>

  <!-- Left Node 4: Purple -->
  <circle cx="180" cy="260" r="20" fill="#c084fc" opacity="0.06"/>
  <circle cx="180" cy="260" r="14" fill="#c084fc" opacity="0.1"/>
  <circle cx="180" cy="260" r="8" fill="#c084fc" opacity="0.15"/>
  <circle cx="180" cy="260" r="4.5" fill="#c084fc" opacity="0.7"/>
  <circle cx="180" cy="260" r="2.5" fill="#ffffff" opacity="0.9"/>

  <!-- Left Node 5: Sky -->
  <circle cx="95" cy="330" r="16" fill="#38bdf8" opacity="0.06"/>
  <circle cx="95" cy="330" r="11" fill="#38bdf8" opacity="0.1"/>
  <circle cx="95" cy="330" r="6" fill="#38bdf8" opacity="0.15"/>
  <circle cx="95" cy="330" r="3.5" fill="#38bdf8" opacity="0.7"/>
  <circle cx="95" cy="330" r="2" fill="#ffffff" opacity="0.9"/>

  <!-- ==================== RIGHT NEURAL NETWORK ==================== -->
  <!-- Connection lines -->
  <line x1="1135" y1="75" x2="1060" y2="140" stroke="url(#connEmeraldPurple)" stroke-opacity="0.3" stroke-width="1.2"/>
  <line x1="1135" y1="75" x2="1150" y2="200" stroke="url(#connSkyIndigo)" stroke-opacity="0.25" stroke-width="1"/>
  <line x1="1060" y1="140" x2="1150" y2="200" stroke="url(#connSkyEmerald)" stroke-opacity="0.3" stroke-width="1.2"/>
  <line x1="1060" y1="140" x2="1020" y2="270" stroke="url(#connIndigoPurple)" stroke-opacity="0.25" stroke-width="1"/>
  <line x1="1150" y1="200" x2="1020" y2="270" stroke="url(#connEmeraldPurple)" stroke-opacity="0.3" stroke-width="1"/>
  <line x1="1150" y1="200" x2="1110" y2="335" stroke="url(#connSkyIndigo)" stroke-opacity="0.25" stroke-width="1.2"/>
  <line x1="1020" y1="270" x2="1110" y2="335" stroke="url(#connSkyEmerald)" stroke-opacity="0.3" stroke-width="1"/>
  <line x1="1135" y1="75" x2="1020" y2="270" stroke="url(#connIndigoPurple)" stroke-opacity="0.15" stroke-width="0.8"/>
  <line x1="1060" y1="140" x2="1110" y2="335" stroke="url(#connEmeraldPurple)" stroke-opacity="0.15" stroke-width="0.8"/>

  <!-- Right Node 1: Emerald -->
  <circle cx="1135" cy="75" r="20" fill="#34d399" opacity="0.06"/>
  <circle cx="1135" cy="75" r="14" fill="#34d399" opacity="0.1"/>
  <circle cx="1135" cy="75" r="8" fill="#34d399" opacity="0.15"/>
  <circle cx="1135" cy="75" r="4.5" fill="#34d399" opacity="0.7"/>
  <circle cx="1135" cy="75" r="2.5" fill="#ffffff" opacity="0.9"/>

  <!-- Right Node 2: Purple -->
  <circle cx="1060" cy="140" r="22" fill="#c084fc" opacity="0.06"/>
  <circle cx="1060" cy="140" r="15" fill="#c084fc" opacity="0.1"/>
  <circle cx="1060" cy="140" r="9" fill="#c084fc" opacity="0.15"/>
  <circle cx="1060" cy="140" r="5" fill="#c084fc" opacity="0.7"/>
  <circle cx="1060" cy="140" r="2.8" fill="#ffffff" opacity="0.9"/>

  <!-- Right Node 3: Sky -->
  <circle cx="1150" cy="200" r="18" fill="#38bdf8" opacity="0.06"/>
  <circle cx="1150" cy="200" r="12" fill="#38bdf8" opacity="0.1"/>
  <circle cx="1150" cy="200" r="7" fill="#38bdf8" opacity="0.15"/>
  <circle cx="1150" cy="200" r="4" fill="#38bdf8" opacity="0.7"/>
  <circle cx="1150" cy="200" r="2.2" fill="#ffffff" opacity="0.9"/>

  <!-- Right Node 4: Indigo -->
  <circle cx="1020" cy="270" r="20" fill="#818cf8" opacity="0.06"/>
  <circle cx="1020" cy="270" r="14" fill="#818cf8" opacity="0.1"/>
  <circle cx="1020" cy="270" r="8" fill="#818cf8" opacity="0.15"/>
  <circle cx="1020" cy="270" r="4.5" fill="#818cf8" opacity="0.7"/>
  <circle cx="1020" cy="270" r="2.5" fill="#ffffff" opacity="0.9"/>

  <!-- Right Node 5: Emerald -->
  <circle cx="1110" cy="335" r="16" fill="#34d399" opacity="0.06"/>
  <circle cx="1110" cy="335" r="11" fill="#34d399" opacity="0.1"/>
  <circle cx="1110" cy="335" r="6" fill="#34d399" opacity="0.15"/>
  <circle cx="1110" cy="335" r="3.5" fill="#34d399" opacity="0.7"/>
  <circle cx="1110" cy="335" r="2" fill="#ffffff" opacity="0.9"/>

  <!-- ==================== VIGNETTE OVERLAY ==================== -->
  <rect width="1200" height="400" fill="url(#vignette)"/>

  <!-- ==================== MAIN TITLE ==================== -->
  <text x="600" y="135" text-anchor="middle" font-family="Arial, sans-serif" font-weight="bold" font-size="52" fill="url(#titleGrad)">Production GenAI</text>
  <text x="600" y="190" text-anchor="middle" font-family="Arial, sans-serif" font-weight="bold" font-size="48" fill="url(#titleGrad)">Interview Questions</text>

  <!-- ==================== SUBTITLE ==================== -->
  <text x="600" y="228" text-anchor="middle" font-family="Arial, sans-serif" font-size="18" fill="#94a3b8">180+ Real-World Questions from Production AI Systems</text>

  <!-- ==================== ACCENT LINE ==================== -->
  <rect x="400" y="245" width="400" height="2" rx="1" fill="url(#accentLine)"/>

  <!-- ==================== STAT PILLS ==================== -->
  <!-- Pill layout: 4 pills, each ~160x36, spaced evenly, centered at y~310 -->
  <!-- Total width: 4*160 + 3*24 = 712, start x = (1200-712)/2 = 244 -->

  <!-- Pill 1: "180+ Questions" - Sky Blue -->
  <!-- Glow layer -->
  <rect x="241" y="303" width="166" height="42" rx="21" fill="#38bdf8" opacity="0.08"/>
  <!-- Background -->
  <rect x="244" y="306" width="160" height="36" rx="18" fill="#0f172a" stroke="#38bdf8" stroke-opacity="0.5" stroke-width="1"/>
  <!-- Inner subtle top highlight -->
  <rect x="254" y="308" width="140" height="16" rx="8" fill="#38bdf8" opacity="0.04"/>
  <!-- Icon dot -->
  <circle cx="272" cy="324" r="4" fill="#38bdf8" opacity="0.8"/>
  <circle cx="272" cy="324" r="2" fill="#ffffff" opacity="0.7"/>
  <!-- Text -->
  <text x="324" y="329" text-anchor="middle" font-family="Arial, sans-serif" font-weight="bold" font-size="13" fill="#38bdf8">180+ Questions</text>

  <!-- Pill 2: "16 Sections" - Indigo -->
  <!-- Glow layer -->
  <rect x="425" y="303" width="166" height="42" rx="21" fill="#818cf8" opacity="0.08"/>
  <!-- Background -->
  <rect x="428" y="306" width="160" height="36" rx="18" fill="#0f172a" stroke="#818cf8" stroke-opacity="0.5" stroke-width="1"/>
  <!-- Inner subtle top highlight -->
  <rect x="438" y="308" width="140" height="16" rx="8" fill="#818cf8" opacity="0.04"/>
  <!-- Icon dot -->
  <circle cx="456" cy="324" r="4" fill="#818cf8" opacity="0.8"/>
  <circle cx="456" cy="324" r="2" fill="#ffffff" opacity="0.7"/>
  <!-- Text -->
  <text x="508" y="329" text-anchor="middle" font-family="Arial, sans-serif" font-weight="bold" font-size="13" fill="#818cf8">16 Sections</text>

  <!-- Pill 3: "4 Difficulty Levels" - Emerald -->
  <!-- Glow layer -->
  <rect x="609" y="303" width="166" height="42" rx="21" fill="#34d399" opacity="0.08"/>
  <!-- Background -->
  <rect x="612" y="306" width="160" height="36" rx="18" fill="#0f172a" stroke="#34d399" stroke-opacity="0.5" stroke-width="1"/>
  <!-- Inner subtle top highlight -->
  <rect x="622" y="308" width="140" height="16" rx="8" fill="#34d399" opacity="0.04"/>
  <!-- Icon dot -->
  <circle cx="637" cy="324" r="4" fill="#34d399" opacity="0.8"/>
  <circle cx="637" cy="324" r="2" fill="#ffffff" opacity="0.7"/>
  <!-- Text -->
  <text x="696" y="329" text-anchor="middle" font-family="Arial, sans-serif" font-weight="bold" font-size="12.5" fill="#34d399">4 Difficulty Levels</text>

  <!-- Pill 4: "Production Tested" - Amber -->
  <!-- Glow layer -->
  <rect x="793" y="303" width="166" height="42" rx="21" fill="#fbbf24" opacity="0.08"/>
  <!-- Background -->
  <rect x="796" y="306" width="160" height="36" rx="18" fill="#0f172a" stroke="#fbbf24" stroke-opacity="0.5" stroke-width="1"/>
  <!-- Inner subtle top highlight -->
  <rect x="806" y="308" width="140" height="16" rx="8" fill="#fbbf24" opacity="0.04"/>
  <!-- Icon dot -->
  <circle cx="822" cy="324" r="4" fill="#fbbf24" opacity="0.8"/>
  <circle cx="822" cy="324" r="2" fill="#ffffff" opacity="0.7"/>
  <!-- Text -->
  <text x="880" y="329" text-anchor="middle" font-family="Arial, sans-serif" font-weight="bold" font-size="12.5" fill="#fbbf24">Production Tested</text>

  <!-- ==================== EDGE GLOW ACCENTS ==================== -->
  <!-- Top edge subtle glow -->
  <rect x="300" y="0" width="600" height="3" rx="1.5" fill="url(#accentLine)" opacity="0.3"/>
  <!-- Bottom edge subtle glow -->
  <rect x="350" y="397" width="500" height="3" rx="1.5" fill="url(#accentLine)" opacity="0.2"/>
</svg>