<svg xmlns="http://www.w3.org/2000/svg" viewBox="0 0 1000 580">
  <!-- Background -->
  <defs>
    <radialGradient id="bgGrad" cx="50%" cy="40%" r="70%">
      <stop offset="0%" stop-color="#0c1222"/>
      <stop offset="100%" stop-color="#030712"/>
    </radialGradient>
    <linearGradient id="skyGrad" x1="0" y1="0" x2="1" y2="0">
      <stop offset="0%" stop-color="#38bdf8"/>
      <stop offset="100%" stop-color="#0ea5e9"/>
    </linearGradient>
    <linearGradient id="emeraldGrad" x1="0" y1="0" x2="1" y2="0">
      <stop offset="0%" stop-color="#34d399"/>
      <stop offset="100%" stop-color="#10b981"/>
    </linearGradient>
    <linearGradient id="purpleGrad" x1="0" y1="0" x2="1" y2="0">
      <stop offset="0%" stop-color="#c084fc"/>
      <stop offset="100%" stop-color="#a855f7"/>
    </linearGradient>
    <linearGradient id="amberGrad" x1="0" y1="0" x2="1" y2="0">
      <stop offset="0%" stop-color="#fbbf24"/>
      <stop offset="100%" stop-color="#f59e0b"/>
    </linearGradient>
    <linearGradient id="roseGrad" x1="0" y1="0" x2="1" y2="0">
      <stop offset="0%" stop-color="#fb7185"/>
      <stop offset="100%" stop-color="#f43f5e"/>
    </linearGradient>
    <linearGradient id="indigoGrad" x1="0" y1="0" x2="1" y2="0">
      <stop offset="0%" stop-color="#818cf8"/>
      <stop offset="100%" stop-color="#6366f1"/>
    </linearGradient>
  </defs>
  <rect width="1000" height="580" fill="url(#bgGrad)"/>

  <!-- Star field decorative dots -->
  <circle cx="50" cy="25" r="1" fill="#f1f5f9" opacity="0.14"/>
  <circle cx="180" cy="48" r="1" fill="#f1f5f9" opacity="0.11"/>
  <circle cx="320" cy="18" r="1" fill="#f1f5f9" opacity="0.17"/>
  <circle cx="460" cy="40" r="1" fill="#f1f5f9" opacity="0.13"/>
  <circle cx="590" cy="12" r="1" fill="#f1f5f9" opacity="0.15"/>
  <circle cx="720" cy="35" r="1" fill="#f1f5f9" opacity="0.10"/>
  <circle cx="860" cy="22" r="1" fill="#f1f5f9" opacity="0.18"/>
  <circle cx="950" cy="45" r="1" fill="#f1f5f9" opacity="0.12"/>
  <circle cx="80" cy="570" r="1" fill="#f1f5f9" opacity="0.16"/>
  <circle cx="230" cy="565" r="1" fill="#f1f5f9" opacity="0.11"/>
  <circle cx="440" cy="572" r="1" fill="#f1f5f9" opacity="0.14"/>
  <circle cx="620" cy="568" r="1" fill="#f1f5f9" opacity="0.13"/>
  <circle cx="800" cy="575" r="1" fill="#f1f5f9" opacity="0.17"/>
  <circle cx="920" cy="560" r="1" fill="#f1f5f9" opacity="0.10"/>
  <circle cx="70" cy="285" r="1" fill="#f1f5f9" opacity="0.15"/>
  <circle cx="960" cy="290" r="1" fill="#f1f5f9" opacity="0.12"/>
  <circle cx="500" cy="278" r="1" fill="#f1f5f9" opacity="0.13"/>

  <!-- Title -->
  <text x="500" y="40" text-anchor="middle" font-family="Arial, sans-serif" font-size="24" font-weight="bold" fill="#f1f5f9">Vector Database &amp; Embeddings Architecture</text>

  <!-- ==================== CARD 1: Embedding Generation (sky) ==================== -->
  <!-- Glow -->
  <rect x="28" y="63" width="304" height="199" rx="12" fill="#38bdf8" opacity="0.08"/>
  <!-- Card -->
  <rect x="30" y="65" width="300" height="195" rx="8" fill="#0f172a" stroke="#38bdf8" stroke-width="1.5"/>
  <!-- Header -->
  <rect x="30" y="65" width="300" height="32" rx="8" fill="url(#skyGrad)" opacity="0.15"/>
  <rect x="30" y="85" width="300" height="12" fill="#0f172a"/>
  <text x="180" y="87" text-anchor="middle" font-family="Arial, sans-serif" font-size="13" font-weight="bold" fill="#38bdf8">Embedding Generation</text>

  <!-- Input text bubble -->
  <rect x="48" y="102" width="264" height="26" rx="13" fill="#38bdf8" opacity="0.06"/>
  <rect x="48" y="102" width="264" height="26" rx="13" fill="none" stroke="#38bdf8" stroke-width="0.8" opacity="0.3"/>
  <text x="180" y="120" text-anchor="middle" font-family="Arial, sans-serif" font-size="10" fill="#f1f5f9">"RAG improves accuracy"</text>

  <!-- Arrow down -->
  <line x1="180" y1="130" x2="180" y2="145" stroke="#334155" stroke-width="1.2"/>
  <polygon points="176,145 180,153 184,145" fill="#334155"/>

  <!-- Embedding Model label -->
  <rect x="120" y="144" width="120" height="20" rx="4" fill="#38bdf8" opacity="0.10"/>
  <text x="180" y="159" text-anchor="middle" font-family="Arial, sans-serif" font-size="10" font-weight="bold" fill="#38bdf8">Embedding Model</text>

  <!-- Arrow down -->
  <line x1="180" y1="166" x2="180" y2="178" stroke="#334155" stroke-width="1.2"/>
  <polygon points="176,178 180,186 184,178" fill="#334155"/>

  <!-- Output vector bubble -->
  <rect x="48" y="180" width="264" height="24" rx="12" fill="#34d399" opacity="0.06"/>
  <rect x="48" y="180" width="264" height="24" rx="12" fill="none" stroke="#34d399" stroke-width="0.8" opacity="0.3"/>
  <text x="180" y="196" text-anchor="middle" font-family="Arial, sans-serif" font-size="10" font-weight="bold" fill="#34d399">[0.23, -0.45, 0.12, ...]</text>

  <!-- Info lines -->
  <text x="180" y="219" text-anchor="middle" font-family="Arial, sans-serif" font-size="10" fill="#94a3b8">Dimensions: 384 - 3072</text>
  <text x="180" y="234" text-anchor="middle" font-family="Arial, sans-serif" font-size="9.5" fill="#94a3b8">Models: text-embedding-3, Cohere, E5, BGE</text>

  <!-- ==================== CARD 2: Vector Database (emerald) ==================== -->
  <!-- Glow -->
  <rect x="343" y="63" width="304" height="199" rx="12" fill="#34d399" opacity="0.08"/>
  <!-- Card -->
  <rect x="345" y="65" width="300" height="195" rx="8" fill="#0f172a" stroke="#34d399" stroke-width="1.5"/>
  <!-- Header -->
  <rect x="345" y="65" width="300" height="32" rx="8" fill="url(#emeraldGrad)" opacity="0.15"/>
  <rect x="345" y="85" width="300" height="12" fill="#0f172a"/>
  <text x="495" y="87" text-anchor="middle" font-family="Arial, sans-serif" font-size="13" font-weight="bold" fill="#34d399">Vector Database</text>

  <!-- Scatter plot area -->
  <!-- Regular emerald dots -->
  <circle cx="385" cy="125" r="3" fill="#34d399" opacity="0.5"/>
  <circle cx="410" cy="150" r="3" fill="#34d399" opacity="0.5"/>
  <circle cx="435" cy="110" r="3" fill="#34d399" opacity="0.5"/>
  <circle cx="460" cy="175" r="3" fill="#34d399" opacity="0.5"/>
  <circle cx="490" cy="120" r="3" fill="#34d399" opacity="0.5"/>
  <circle cx="530" cy="145" r="3" fill="#34d399" opacity="0.5"/>
  <circle cx="555" cy="110" r="3" fill="#34d399" opacity="0.5"/>
  <circle cx="580" cy="165" r="3" fill="#34d399" opacity="0.5"/>
  <circle cx="605" cy="130" r="3" fill="#34d399" opacity="0.5"/>

  <!-- Query dot (rose) with concentric search radius circles -->
  <circle cx="510" cy="148" r="38" fill="none" stroke="#fb7185" stroke-width="0.5" opacity="0.15"/>
  <circle cx="510" cy="148" r="26" fill="none" stroke="#fb7185" stroke-width="0.7" opacity="0.25"/>
  <circle cx="510" cy="148" r="14" fill="none" stroke="#fb7185" stroke-width="0.9" opacity="0.35"/>
  <circle cx="510" cy="148" r="5" fill="#fb7185" opacity="0.9"/>
  <text x="524" y="144" font-family="Arial, sans-serif" font-size="9" font-weight="bold" fill="#fb7185">Query</text>

  <!-- Highlighted nearest dots (brighter, larger) -->
  <circle cx="490" cy="120" r="4.5" fill="#34d399" opacity="0.95"/>
  <circle cx="530" cy="145" r="4.5" fill="#34d399" opacity="0.95"/>
  <circle cx="490" cy="155" r="3" fill="#34d399" opacity="0.5"/>
  <circle cx="505" cy="165" r="4.5" fill="#34d399" opacity="0.95"/>

  <!-- Label -->
  <text x="495" y="200" text-anchor="middle" font-family="Arial, sans-serif" font-size="11" font-weight="bold" fill="#f1f5f9">ANN: Find K nearest neighbors</text>

  <!-- Info -->
  <text x="495" y="218" text-anchor="middle" font-family="Arial, sans-serif" font-size="10" fill="#94a3b8">Pinecone | Weaviate | Qdrant | pgvector</text>

  <!-- Axis lines for scatter -->
  <line x1="370" y1="190" x2="630" y2="190" stroke="#1e293b" stroke-width="0.5"/>
  <line x1="370" y1="100" x2="370" y2="190" stroke="#1e293b" stroke-width="0.5"/>

  <!-- ==================== CARD 3: Index Types (purple) ==================== -->
  <!-- Glow -->
  <rect x="658" y="63" width="314" height="199" rx="12" fill="#c084fc" opacity="0.08"/>
  <!-- Card -->
  <rect x="660" y="65" width="310" height="195" rx="8" fill="#0f172a" stroke="#c084fc" stroke-width="1.5"/>
  <!-- Header -->
  <rect x="660" y="65" width="310" height="32" rx="8" fill="url(#purpleGrad)" opacity="0.15"/>
  <rect x="660" y="85" width="310" height="12" fill="#0f172a"/>
  <text x="815" y="87" text-anchor="middle" font-family="Arial, sans-serif" font-size="13" font-weight="bold" fill="#c084fc">Index Types</text>

  <!-- HNSW - Graph icon -->
  <circle cx="690" cy="115" r="3" fill="#c084fc" opacity="0.8"/>
  <circle cx="706" cy="105" r="3" fill="#c084fc" opacity="0.8"/>
  <circle cx="706" cy="125" r="3" fill="#c084fc" opacity="0.8"/>
  <circle cx="722" cy="115" r="3" fill="#c084fc" opacity="0.8"/>
  <line x1="690" y1="115" x2="706" y2="105" stroke="#c084fc" stroke-width="0.8" opacity="0.6"/>
  <line x1="690" y1="115" x2="706" y2="125" stroke="#c084fc" stroke-width="0.8" opacity="0.6"/>
  <line x1="706" y1="105" x2="722" y2="115" stroke="#c084fc" stroke-width="0.8" opacity="0.6"/>
  <line x1="706" y1="125" x2="722" y2="115" stroke="#c084fc" stroke-width="0.8" opacity="0.6"/>
  <text x="738" y="112" font-family="Arial, sans-serif" font-size="12" font-weight="bold" fill="#f1f5f9">HNSW</text>
  <text x="738" y="126" font-family="Arial, sans-serif" font-size="9.5" fill="#94a3b8">Graph-based, fast queries, high memory</text>

  <!-- IVF - Cluster icon -->
  <circle cx="690" cy="152" r="2" fill="#38bdf8" opacity="0.7"/>
  <circle cx="696" cy="148" r="2" fill="#38bdf8" opacity="0.7"/>
  <circle cx="694" cy="156" r="2" fill="#38bdf8" opacity="0.7"/>
  <circle cx="706" cy="152" r="2" fill="#34d399" opacity="0.7"/>
  <circle cx="712" cy="148" r="2" fill="#34d399" opacity="0.7"/>
  <circle cx="710" cy="156" r="2" fill="#34d399" opacity="0.7"/>
  <circle cx="722" cy="152" r="2" fill="#fbbf24" opacity="0.7"/>
  <circle cx="728" cy="148" r="2" fill="#fbbf24" opacity="0.7"/>
  <circle cx="726" cy="156" r="2" fill="#fbbf24" opacity="0.7"/>
  <text x="738" y="150" font-family="Arial, sans-serif" font-size="12" font-weight="bold" fill="#f1f5f9">IVF</text>
  <text x="738" y="163" font-family="Arial, sans-serif" font-size="9.5" fill="#94a3b8">Cluster-based, balanced, needs training</text>

  <!-- PQ - Compressed icon (large rect → small rect) -->
  <rect x="686" y="183" width="18" height="14" rx="2" fill="none" stroke="#c084fc" stroke-width="1" opacity="0.7"/>
  <line x1="706" y1="190" x2="714" y2="190" stroke="#c084fc" stroke-width="0.8" opacity="0.5"/>
  <polygon points="714,187 718,190 714,193" fill="#c084fc" opacity="0.5"/>
  <rect x="720" y="186" width="10" height="8" rx="1" fill="none" stroke="#c084fc" stroke-width="1" opacity="0.7"/>
  <text x="738" y="189" font-family="Arial, sans-serif" font-size="12" font-weight="bold" fill="#f1f5f9">PQ</text>
  <text x="738" y="202" font-family="Arial, sans-serif" font-size="9.5" fill="#94a3b8">Compressed, billion-scale, lower recall</text>

  <!-- Separator lines between index items -->
  <line x1="675" y1="135" x2="955" y2="135" stroke="#1e293b" stroke-width="0.5"/>
  <line x1="675" y1="173" x2="955" y2="173" stroke="#1e293b" stroke-width="0.5"/>

  <!-- ==================== ARROWS BETWEEN TOP CARDS ==================== -->
  <!-- Card1 → Card2 -->
  <line x1="332" y1="162" x2="343" y2="162" stroke="#334155" stroke-width="1.5"/>
  <polygon points="340,158 348,162 340,166" fill="#334155"/>

  <!-- Card2 → Card3 -->
  <line x1="647" y1="162" x2="658" y2="162" stroke="#334155" stroke-width="1.5"/>
  <polygon points="655,158 663,162 655,166" fill="#334155"/>

  <!-- ==================== BOTTOM LEFT CARD: Distance Metrics ==================== -->
  <!-- Glow -->
  <rect x="28" y="288" width="464" height="264" rx="12" fill="#818cf8" opacity="0.08"/>
  <!-- Card -->
  <rect x="30" y="290" width="460" height="260" rx="8" fill="#0f172a" stroke="#818cf8" stroke-width="1.5"/>
  <!-- Header -->
  <rect x="30" y="290" width="460" height="32" rx="8" fill="url(#indigoGrad)" opacity="0.15"/>
  <rect x="30" y="310" width="460" height="12" fill="#0f172a"/>
  <text x="260" y="312" text-anchor="middle" font-family="Arial, sans-serif" font-size="14" font-weight="bold" fill="#818cf8">Distance Metrics</text>

  <!-- Sub-card 1: Cosine Similarity (sky) -->
  <rect x="42" y="330" width="140" height="150" rx="6" fill="#0a0f1a" stroke="#38bdf8" stroke-width="1" opacity="0.6"/>
  <text x="112" y="348" text-anchor="middle" font-family="Arial, sans-serif" font-size="11" font-weight="bold" fill="#38bdf8">Cosine Similarity</text>

  <!-- Visual: Two arrows from origin with arc -->
  <line x1="75" y1="400" x2="130" y2="362" stroke="#38bdf8" stroke-width="1.2" opacity="0.8"/>
  <line x1="75" y1="400" x2="140" y2="385" stroke="#f1f5f9" stroke-width="1.2" opacity="0.5"/>
  <path d="M 110,373 A 25,25 0 0,1 122,388" fill="none" stroke="#fbbf24" stroke-width="1" opacity="0.6"/>
  <circle cx="75" cy="400" r="2" fill="#38bdf8" opacity="0.8"/>

  <text x="112" y="420" text-anchor="middle" font-family="Arial, sans-serif" font-size="9" fill="#94a3b8">Measures angle</text>
  <text x="112" y="432" text-anchor="middle" font-family="Arial, sans-serif" font-size="9" fill="#94a3b8">between vectors</text>
  <text x="112" y="448" text-anchor="middle" font-family="Arial, sans-serif" font-size="9" fill="#94a3b8">Most common for text</text>

  <!-- DEFAULT badge -->
  <rect x="82" y="456" width="60" height="18" rx="9" fill="#38bdf8" opacity="0.12"/>
  <rect x="82" y="456" width="60" height="18" rx="9" fill="none" stroke="#38bdf8" stroke-width="0.8" opacity="0.4"/>
  <text x="112" y="469" text-anchor="middle" font-family="Arial, sans-serif" font-size="9" font-weight="bold" fill="#38bdf8">DEFAULT</text>

  <!-- Sub-card 2: Euclidean (emerald) -->
  <rect x="192" y="330" width="140" height="150" rx="6" fill="#0a0f1a" stroke="#34d399" stroke-width="1" opacity="0.6"/>
  <text x="262" y="348" text-anchor="middle" font-family="Arial, sans-serif" font-size="11" font-weight="bold" fill="#34d399">Euclidean (L2)</text>

  <!-- Visual: Two points with straight line -->
  <circle cx="222" cy="375" r="4" fill="#34d399" opacity="0.7"/>
  <circle cx="298" cy="395" r="4" fill="#34d399" opacity="0.7"/>
  <line x1="222" y1="375" x2="298" y2="395" stroke="#34d399" stroke-width="1.2" stroke-dasharray="3,2" opacity="0.6"/>
  <!-- Distance label on line -->
  <text x="260" y="380" text-anchor="middle" font-family="Arial, sans-serif" font-size="8" fill="#34d399" opacity="0.8">d</text>

  <text x="262" y="420" text-anchor="middle" font-family="Arial, sans-serif" font-size="9" fill="#94a3b8">Straight-line</text>
  <text x="262" y="432" text-anchor="middle" font-family="Arial, sans-serif" font-size="9" fill="#94a3b8">distance</text>
  <text x="262" y="448" text-anchor="middle" font-family="Arial, sans-serif" font-size="9" fill="#94a3b8">When magnitude matters</text>

  <!-- Sub-card 3: Dot Product (purple) -->
  <rect x="342" y="330" width="140" height="150" rx="6" fill="#0a0f1a" stroke="#c084fc" stroke-width="1" opacity="0.6"/>
  <text x="412" y="348" text-anchor="middle" font-family="Arial, sans-serif" font-size="11" font-weight="bold" fill="#c084fc">Dot Product</text>

  <!-- Visual: Two arrows with projection -->
  <line x1="372" y1="400" x2="450" y2="370" stroke="#c084fc" stroke-width="1.2" opacity="0.8"/>
  <line x1="372" y1="400" x2="445" y2="395" stroke="#f1f5f9" stroke-width="1.2" opacity="0.5"/>
  <!-- Projection line (dashed vertical) -->
  <line x1="440" y1="372" x2="440" y2="396" stroke="#fbbf24" stroke-width="0.8" stroke-dasharray="2,2" opacity="0.5"/>
  <circle cx="372" cy="400" r="2" fill="#c084fc" opacity="0.8"/>

  <text x="412" y="420" text-anchor="middle" font-family="Arial, sans-serif" font-size="9" fill="#94a3b8">Projection</text>
  <text x="412" y="432" text-anchor="middle" font-family="Arial, sans-serif" font-size="9" fill="#94a3b8">magnitude</text>
  <text x="412" y="448" text-anchor="middle" font-family="Arial, sans-serif" font-size="9" fill="#94a3b8">Fastest computation</text>

  <!-- Info callout at bottom of card -->
  <rect x="42" y="488" width="436" height="28" rx="6" fill="#fbbf24" opacity="0.08"/>
  <rect x="42" y="488" width="436" height="28" rx="6" fill="none" stroke="#fbbf24" stroke-width="1" opacity="0.4"/>
  <text x="260" y="507" text-anchor="middle" font-family="Arial, sans-serif" font-size="9.5" font-weight="bold" fill="#fbbf24">&#128161; If vectors are L2-normalized, all three metrics produce equivalent rankings</text>

  <!-- ==================== BOTTOM RIGHT CARD: Scale Challenges ==================== -->
  <!-- Glow -->
  <rect x="508" y="288" width="464" height="264" rx="12" fill="#fb7185" opacity="0.08"/>
  <!-- Card -->
  <rect x="510" y="290" width="460" height="260" rx="8" fill="#0f172a" stroke="#fb7185" stroke-width="1.5"/>
  <!-- Header -->
  <rect x="510" y="290" width="460" height="32" rx="8" fill="url(#roseGrad)" opacity="0.15"/>
  <rect x="510" y="310" width="460" height="12" fill="#0f172a"/>
  <text x="740" y="312" text-anchor="middle" font-family="Arial, sans-serif" font-size="14" font-weight="bold" fill="#fb7185">Scale Challenges</text>

  <!-- Challenge Bar 1: Amber - Storage -->
  <rect x="522" y="330" width="436" height="36" rx="6" fill="#fbbf24" opacity="0.06"/>
  <rect x="522" y="330" width="436" height="36" rx="6" fill="none" stroke="#fbbf24" stroke-width="1" opacity="0.3"/>
  <!-- Storage icon (stacked discs) -->
  <ellipse cx="544" cy="341" rx="10" ry="4" fill="none" stroke="#fbbf24" stroke-width="1" opacity="0.7"/>
  <ellipse cx="544" cy="348" rx="10" ry="4" fill="none" stroke="#fbbf24" stroke-width="1" opacity="0.7"/>
  <ellipse cx="544" cy="355" rx="10" ry="4" fill="none" stroke="#fbbf24" stroke-width="1" opacity="0.7"/>
  <line x1="534" y1="341" x2="534" y2="355" stroke="#fbbf24" stroke-width="1" opacity="0.7"/>
  <line x1="554" y1="341" x2="554" y2="355" stroke="#fbbf24" stroke-width="1" opacity="0.7"/>
  <text x="566" y="352" font-family="Arial, sans-serif" font-size="11" font-weight="bold" fill="#fbbf24">1B vectors x 1024 dims = ~4TB storage</text>

  <!-- Challenge Bar 2: Rose - Time -->
  <rect x="522" y="374" width="436" height="36" rx="6" fill="#fb7185" opacity="0.06"/>
  <rect x="522" y="374" width="436" height="36" rx="6" fill="none" stroke="#fb7185" stroke-width="1" opacity="0.3"/>
  <!-- Clock icon -->
  <circle cx="544" cy="392" r="10" fill="none" stroke="#fb7185" stroke-width="1" opacity="0.7"/>
  <line x1="544" y1="392" x2="544" y2="385" stroke="#fb7185" stroke-width="1" opacity="0.7"/>
  <line x1="544" y1="392" x2="550" y2="395" stroke="#fb7185" stroke-width="1" opacity="0.7"/>
  <text x="566" y="396" font-family="Arial, sans-serif" font-size="11" font-weight="bold" fill="#fb7185">Embedding generation: 5.8+ days on single L4 GPU</text>

  <!-- Challenge Bar 3: Sky - Re-indexing -->
  <rect x="522" y="418" width="436" height="36" rx="6" fill="#38bdf8" opacity="0.06"/>
  <rect x="522" y="418" width="436" height="36" rx="6" fill="none" stroke="#38bdf8" stroke-width="1" opacity="0.3"/>
  <!-- Refresh icon (circular arrow) -->
  <path d="M 540,430 A 8,8 0 1,1 548,440" fill="none" stroke="#38bdf8" stroke-width="1.2" opacity="0.7"/>
  <polygon points="548,437 548,443 553,440" fill="#38bdf8" opacity="0.7"/>
  <text x="566" y="440" font-family="Arial, sans-serif" font-size="11" font-weight="bold" fill="#38bdf8">Model upgrade = Full re-indexing required</text>

  <!-- Mitigation Strategies section -->
  <text x="530" y="472" font-family="Arial, sans-serif" font-size="11" font-weight="bold" fill="#f1f5f9">Mitigation Strategies</text>
  <line x1="530" y1="476" x2="680" y2="476" stroke="#1e293b" stroke-width="0.5"/>

  <circle cx="530" cy="490" r="2" fill="#34d399" opacity="0.8"/>
  <text x="540" y="494" font-family="Arial, sans-serif" font-size="10" fill="#94a3b8">Quantization: </text>
  <text x="610" y="494" font-family="Arial, sans-serif" font-size="10" fill="#34d399">int8 reduces storage 4x</text>
  <text x="770" y="494" font-family="Arial, sans-serif" font-size="10" fill="#94a3b8"> with &lt;1% recall loss</text>

  <circle cx="530" cy="510" r="2" fill="#34d399" opacity="0.8"/>
  <text x="540" y="514" font-family="Arial, sans-serif" font-size="10" fill="#94a3b8">Streaming indexing: </text>
  <text x="648" y="514" font-family="Arial, sans-serif" font-size="10" fill="#94a3b8">Process in batches, not all-at-once</text>

  <circle cx="530" cy="530" r="2" fill="#34d399" opacity="0.8"/>
  <text x="540" y="534" font-family="Arial, sans-serif" font-size="10" fill="#94a3b8">Matryoshka embeddings: </text>
  <text x="678" y="534" font-family="Arial, sans-serif" font-size="10" fill="#94a3b8">Variable dimensions per use case</text>
</svg>